<?xml version="1.0" encoding="UTF-8" standalone="no"?>
<svg
   xmlns:dc="http://purl.org/dc/elements/1.1/"
   xmlns:cc="http://creativecommons.org/ns#"
   xmlns:rdf="http://www.w3.org/1999/02/22-rdf-syntax-ns#"
   xmlns:svg="http://www.w3.org/2000/svg"
   xmlns="http://www.w3.org/2000/svg"
   xmlns:sodipodi="http://sodipodi.sourceforge.net/DTD/sodipodi-0.dtd"
   xmlns:inkscape="http://www.inkscape.org/namespaces/inkscape"
   viewBox="0 -256 1850 1850"
   id="svg2"
   version="1.1"
   inkscape:version="0.48.3.1 r9886"
   width="100%"
   height="100%"
   sodipodi:docname="camera_retro_font_awesome.svg">
  <metadata
     id="metadata12">
    <rdf:RDF>
      <cc:Work
         rdf:about="">
        <dc:format>image/svg+xml</dc:format>
        <dc:type
           rdf:resource="http://purl.org/dc/dcmitype/StillImage" />
      </cc:Work>
    </rdf:RDF>
  </metadata>
  <defs
     id="defs10" />
  <sodipodi:namedview
     pagecolor="#ffffff"
     bordercolor="#666666"
     borderopacity="1"
     objecttolerance="10"
     gridtolerance="10"
     guidetolerance="10"
     inkscape:pageopacity="0"
     inkscape:pageshadow="2"
     inkscape:window-width="640"
     inkscape:window-height="480"
     id="namedview8"
     showgrid="false"
     inkscape:zoom="0.13169643"
     inkscape:cx="896"
     inkscape:cy="896"
     inkscape:window-x="0"
     inkscape:window-y="25"
     inkscape:window-maximized="0"
     inkscape:current-layer="svg2" />
  <g
     transform="matrix(1,0,0,-1,37.966102,1305.4576)"
     id="g4">
    <path
       d="m 928,704 q 0,14 -9,23 -9,9 -23,9 -66,0 -113,-47 -47,-47 -47,-113 0,-14 9,-23 9,-9 23,-9 14,0 23,9 9,9 9,23 0,40 28,68 28,28 68,28 14,0 23,9 9,9 9,23 z m 224,-130 q 0,-106 -75,-181 -75,-75 -181,-75 -106,0 -181,75 -75,75 -75,181 0,106 75,181 75,75 181,75 106,0 181,-75 75,-75 75,-181 z M 128,0 H 1664 V 128 H 128 V 0 z m 1152,574 q 0,159 -112.5,271.5 Q 1055,958 896,958 737,958 624.5,845.5 512,733 512,574 512,415 624.5,302.5 737,190 896,190 1055,190 1167.5,302.5 1280,415 1280,574 z M 256,1216 h 384 v 128 H 256 V 1216 z M 128,1024 h 1536 v 118 138 H 836 L 772,1152 H 128 v -128 z m 1664,256 V 0 q 0,-53 -37.5,-90.5 Q 1717,-128 1664,-128 H 128 Q 75,-128 37.5,-90.5 0,-53 0,0 v 1280 q 0,53 37.5,90.5 Q 75,1408 128,1408 h 1536 q 53,0 90.5,-37.5 37.5,-37.5 37.5,-90.5 z"
       id="path6"
       inkscape:connector-curvature="0"
       style="fill:currentColor" />
  </g>
</svg>
